<?xml version="1.0" encoding="UTF-8"?>
<svg width="100px" height="100px" viewBox="0 0 100 100" version="1.1" xmlns="http://www.w3.org/2000/svg" xmlns:xlink="http://www.w3.org/1999/xlink">
    <!-- Generator: sketchtool 51 (57462) - http://www.bohemiancoding.com/sketch -->
    <title>15FDAC58-3617-473E-9E9B-7A25925DA6DE</title>
    <desc>Created with sketchtool.</desc>
    <defs>
        <polygon id="path-1" points="0 82.8636 69.958 82.8636 69.958 -0.0004 0 -0.0004"></polygon>
    </defs>
    <g id="Symbols" stroke="none" stroke-width="1" fill="none" fill-rule="evenodd">
        <g id="Icons/icon_05">
            <g id="Group-17" transform="translate(15.000000, 9.000000)">
                <path d="M54.3318,73.2431 C56.2533729,73.2431 57.8318,71.6646729 57.8318,69.7431 L57.8318,13.1201 C57.8318,11.1985271 56.2533729,9.6201 54.3318,9.6201 L6.4998,9.6201 C4.57822712,9.6201 2.9998,11.1985271 2.9998,13.1201 L2.9998,69.7431 C2.9998,71.6646729 4.57822712,73.2431 6.4998,73.2431 L54.3318,73.2431 Z M54.3318,76.2431 L6.4998,76.2431 C2.92137288,76.2431 -0.0002,73.3215271 -0.0002,69.7431 L-0.0002,13.1201 C-0.0002,9.54167288 2.92137288,6.6201 6.4998,6.6201 L54.3318,6.6201 C57.9102271,6.6201 60.8318,9.54167288 60.8318,13.1201 L60.8318,69.7431 C60.8318,73.3215271 57.9102271,76.2431 54.3318,76.2431 Z" id="Stroke-1" fill="#D83212" fill-rule="nonzero"></path>
                <path d="M63.9587,23.6542 C63.1302729,23.6542 62.4587,22.9826271 62.4587,22.1542 C62.4587,21.3257729 63.1302729,20.6542 63.9587,20.6542 C67.2621271,20.6542 69.9587,23.3507729 69.9587,26.6542 L69.9587,32.1662 C69.9587,35.4696271 67.2621271,38.1662 63.9587,38.1662 C63.1302729,38.1662 62.4587,37.4946271 62.4587,36.6662 C62.4587,35.8377729 63.1302729,35.1662 63.9587,35.1662 C65.6052729,35.1662 66.9587,33.8127729 66.9587,32.1662 L66.9587,26.6542 C66.9587,25.0076271 65.6052729,23.6542 63.9587,23.6542 Z" id="Stroke-3" fill="#D83212" fill-rule="nonzero"></path>
                <path d="M45.1746593,2.22119602 C44.7768508,1.49453248 45.0434404,0.582967782 45.770104,0.185159277 C46.4967675,-0.212649228 47.4083322,0.0539404481 47.8061407,0.780603984 C48.8000694,2.59618032 49.5380494,4.28901964 50.0580486,5.8170225 C50.3776377,6.75612576 50.5553909,7.44671572 50.6294227,7.8473051 C50.7998162,8.76931153 50.0920192,9.6199 49.1544,9.6199 L12.4494,9.6199 C11.5112937,9.6199 10.8033768,8.7684762 10.9745955,7.84612721 C11.0489061,7.44581837 11.227073,6.75551709 11.5471103,5.81658587 C12.0678521,4.28882357 12.8064082,2.59584852 13.800646,0.779628151 C14.1984412,0.0529573084 15.110001,-0.21364911 15.8366718,0.184146048 C16.5633427,0.581941206 16.8299491,1.49350101 16.432154,2.22017185 C15.5587071,3.81573769 14.9066604,5.29417824 14.4434849,6.61990018 L47.16162,6.6199 C46.6992059,5.29420533 46.0477618,3.81606329 45.1746593,2.22119602 Z" id="Stroke-5" fill="#D83212" fill-rule="nonzero"></path>
                <path d="M16.432154,80.6429282 C16.8299491,81.369599 16.5633427,82.2811588 15.8366718,82.678954 C15.110001,83.0767491 14.1984412,82.8101427 13.800646,82.0834718 C12.8064082,80.2672515 12.0678521,78.5742764 11.5471103,77.0465141 C11.227073,76.1075829 11.0489061,75.4172816 10.9745955,75.0169728 C10.8033768,74.0946238 11.5112937,73.2432 12.4494,73.2432 L49.1544,73.2432 C50.091978,73.2432 50.7997649,74.0937179 50.6294411,75.0156953 C50.5554117,75.4164229 50.3776587,76.1071861 50.0580645,77.0464058 C49.5380478,78.5746249 48.8000386,80.267433 47.8060643,82.0826355 C47.4081788,82.8092569 46.4965858,83.0757499 45.7699645,82.6778643 C45.0433431,82.2799788 44.7768501,81.3683858 45.1747357,80.6417645 C46.0478893,79.0472053 46.6993514,77.5690785 47.161757,76.2431998 L14.443485,76.2432 C14.9066605,77.5689219 15.5587071,79.0473624 16.432154,80.6429282 Z" id="Stroke-7" fill="#D83212" fill-rule="nonzero"></path>
                <polygon id="Fill-9" fill="#D83212" points="16.9118 24.1318 16.8508 24.1318 13.4078 25.9888 12.8898 23.9478 17.2158 21.6328 19.4998 21.6328 19.4998 41.4328 16.9118 41.4328"></polygon>
                <mask id="mask-2" fill="white">
                    <use xlink:href="#path-1"></use>
                </mask>
                <g id="Clip-12"></g>
                <polygon id="Fill-11" fill="#D83212" mask="url(#mask-2)" points="26.266 34.1826 33.792 34.1826 33.792 32.2036 26.266 32.2036"></polygon>
                <path d="M36.0779,41.4326 L36.0779,39.7866 L38.1799,37.7456 C43.2349,32.9336 45.5189,30.3746 45.5509,27.3896 C45.5509,25.3796 44.5749,23.5216 41.6209,23.5216 C39.8229,23.5216 38.3319,24.4346 37.4179,25.1966 L36.5649,23.3096 C37.9359,22.1506 39.8859,21.2976 42.1699,21.2976 C46.4319,21.2976 48.2299,24.2226 48.2299,27.0546 C48.2299,30.7096 45.5799,33.6636 41.4089,37.6856 L39.8229,39.1486 L39.8229,39.2086 L48.7169,39.2086 L48.7169,41.4326 L36.0779,41.4326 Z" id="Fill-13" fill="#D83212" mask="url(#mask-2)"></path>
                <path d="M13.6565,49.288 L16.0565,49.288 L18.0105,54.708 C18.2785,55.508 18.7425,56.818 18.9895,57.662 L19.0325,57.662 C19.2755,56.862 19.8755,55.153 20.2975,53.975 L22.0325,49.288 L24.4515,49.288 L25.2085,60.04 L23.3405,60.04 L23.0975,54.908 C23.0305,53.754 22.9435,52.375 22.8975,51.064 L22.8295,51.064 C22.5435,52.043 22.2545,52.91 21.6545,54.554 L19.5865,59.973 L18.1645,59.973 L16.2565,54.664 C15.9215,53.642 15.4565,52.086 15.1885,51.089 L15.0995,51.089 C15.0565,52.353 14.9895,53.775 14.9235,54.953 L14.6565,60.04 L12.8565,60.04 L13.6565,49.288 Z" id="Fill-14" fill="#D83212" mask="url(#mask-2)"></path>
                <path d="M29.5505,49.288 L29.5505,53.821 C29.5505,55.529 29.5265,56.597 29.4395,58.13 L29.5045,58.151 C30.1505,56.84 30.5265,56.086 31.2375,54.843 L34.5915,49.288 L36.8805,49.288 L36.8805,60.04 L35.0155,60.04 L35.0155,55.486 C35.0155,53.731 35.0595,52.821 35.1485,51.089 L35.0805,51.089 C34.3915,52.465 33.9265,53.332 33.3045,54.419 C32.2825,56.086 31.1045,58.151 29.9505,60.04 L27.7075,60.04 L27.7075,49.288 L29.5505,49.288 Z" id="Fill-15" fill="#D83212" mask="url(#mask-2)"></path>
                <polygon id="Fill-16" fill="#D83212" mask="url(#mask-2)" points="41.9558 49.288 41.9558 53.621 47.0638 53.621 47.0638 49.288 48.9968 49.288 48.9968 60.04 47.0638 60.04 47.0638 55.175 41.9558 55.175 41.9558 60.04 40.0228 60.04 40.0228 49.288"></polygon>
            </g>
        </g>
    </g>
</svg>