<?xml version="1.0" encoding="UTF-8"?>
<svg width="100px" height="100px" viewBox="0 0 100 100" version="1.1" xmlns="http://www.w3.org/2000/svg" xmlns:xlink="http://www.w3.org/1999/xlink">
    <!-- Generator: sketchtool 51 (57462) - http://www.bohemiancoding.com/sketch -->
    <title>FEBB1D80-9B52-48CC-9C0B-A6EE600C5019</title>
    <desc>Created with sketchtool.</desc>
    <defs></defs>
    <g id="Symbols" stroke="none" stroke-width="1" fill="none" fill-rule="evenodd">
        <g id="Icons/icon_01">
            <g id="Group-15" transform="translate(16.000000, 10.000000)">
                <path d="M53.3323,73.7429 L5.4993,73.7429 C2.7493,73.7429 0.4993,71.4929 0.4993,68.7429 L0.4993,12.1199 C0.4993,9.3699 2.7493,7.1199 5.4993,7.1199 L53.3323,7.1199 C56.0823,7.1199 58.3323,9.3699 58.3323,12.1199 L58.3323,68.7429 C58.3323,71.4929 56.0823,73.7429 53.3323,73.7429 Z" id="Stroke-1" stroke="#D83212" stroke-width="3" stroke-linecap="round" stroke-linejoin="round"></path>
                <path d="M62.9588,21.1545 C65.4338,21.1545 67.4588,23.1795 67.4588,25.6545 L67.4588,31.1665 C67.4588,33.6415 65.4338,35.6665 62.9588,35.6665" id="Stroke-3" stroke="#D83212" stroke-width="3" stroke-linecap="round" stroke-linejoin="round"></path>
                <path d="M14.1165,0.4997 C11.9405,4.4747 11.4495,7.1207 11.4495,7.1207 L48.1535,7.1207 C48.1535,7.1207 47.6655,4.4727 45.4905,0.5007" id="Stroke-5" stroke="#D83212" stroke-width="3" stroke-linecap="round" stroke-linejoin="round"></path>
                <path d="M14.1165,80.3635 C11.9405,76.3885 11.4495,73.7425 11.4495,73.7425 L48.1535,73.7425 C48.1535,73.7425 47.6655,76.3905 45.4905,80.3625" id="Stroke-7" stroke="#D83212" stroke-width="3" stroke-linecap="round" stroke-linejoin="round"></path>
                <polygon id="Fill-9" fill="#D83212" points="12.6209 33.8249 12.5609 33.8249 9.1189 35.6829 8.5999 33.6429 12.9259 31.3269 15.2099 31.3269 15.2099 51.1259 12.6209 51.1259"></polygon>
                <path d="M24.8406,41.3176 C24.8406,46.4656 26.4236,49.3896 28.8616,49.3896 C31.6016,49.3896 32.9116,46.1916 32.9116,41.1356 C32.9116,36.2626 31.6636,33.0636 28.8906,33.0636 C26.5466,33.0636 24.8406,35.9276 24.8406,41.3176 M35.5926,41.0136 C35.5926,47.7456 33.0946,51.4616 28.7096,51.4616 C24.8406,51.4616 22.2206,47.8376 22.1596,41.2876 C22.1596,34.6476 25.0236,30.9926 29.0446,30.9926 C33.2166,30.9926 35.5926,34.7076 35.5926,41.0136" id="Fill-11" fill="#D83212"></path>
                <path d="M49.426,50.5779 C48.725,50.9429 47.172,51.4309 45.191,51.4309 C40.744,51.4309 37.851,48.4149 37.851,43.9069 C37.851,39.3689 40.957,36.0789 45.771,36.0789 C47.354,36.0789 48.755,36.4749 49.487,36.8409 L48.877,38.9119 C48.239,38.5469 47.232,38.2119 45.771,38.2119 C42.39,38.2119 40.562,40.7089 40.562,43.7859 C40.562,47.1979 42.755,49.2989 45.679,49.2989 C47.202,49.2989 48.207,48.9019 48.968,48.5669 L49.426,50.5779 Z" id="Fill-13" fill="#D83212"></path>
            </g>
        </g>
    </g>
</svg>