<?xml version="1.0" encoding="UTF-8"?>
<svg width="100px" height="100px" viewBox="0 0 100 100" version="1.1" xmlns="http://www.w3.org/2000/svg" xmlns:xlink="http://www.w3.org/1999/xlink">
    <!-- Generator: sketchtool 51 (57462) - http://www.bohemiancoding.com/sketch -->
    <title>2155EF1C-C997-4FE1-962C-7B5B2DABABAA</title>
    <desc>Created with sketchtool.</desc>
    <defs></defs>
    <g id="Symbols" stroke="none" stroke-width="1" fill="none" fill-rule="evenodd" stroke-linecap="round" stroke-linejoin="round">
        <g id="Icons/icon_03" stroke="#D83212" stroke-width="3">
            <g id="Group-7" transform="translate(24.000000, 6.000000)">
                <path d="M35.7367,0.5002 C35.7367,0.5002 43.1187,11.1802 34.1327,22.0642 C34.1327,22.0642 26.8067,17.7872 35.7367,0.5002 Z" id="Stroke-1"></path>
                <path d="M44.0863,17.1999 C44.0863,17.1999 54.2283,27.4979 50.9073,38.4809 C47.5873,49.4649 37.2033,48.4459 34.0443,44.9689 C31.8453,42.5489 27.7383,38.3809 30.8753,28.2639 C30.8753,28.2639 31.4103,31.7289 33.7463,32.6769 C33.7463,32.6769 42.4203,31.0689 44.0863,17.1999 Z" id="Stroke-3"></path>
                <path d="M25.4389,38.9567 L21.2269,43.6447 L0.5009,11.3047 C0.5009,11.3047 17.2639,64.8887 18.0609,65.1967 C18.8579,65.5057 29.5409,53.8937 29.5409,53.8937 L50.3779,88.5597 L40.6559,53.6407" id="Stroke-5"></path>
            </g>
        </g>
    </g>
</svg>