<?xml version="1.0" encoding="UTF-8"?>
<svg width="100px" height="100px" viewBox="0 0 100 100" version="1.1" xmlns="http://www.w3.org/2000/svg" xmlns:xlink="http://www.w3.org/1999/xlink">
    <!-- Generator: sketchtool 51 (57462) - http://www.bohemiancoding.com/sketch -->
    <title>E4B9BB76-5BFB-4E6F-BD7C-DDD372367E9B</title>
    <desc>Created with sketchtool.</desc>
    <defs></defs>
    <g id="Symbols" stroke="none" stroke-width="1" fill="none" fill-rule="evenodd" stroke-linecap="round" stroke-linejoin="round">
        <g id="Icons/icon_10" stroke="#D73315" stroke-width="3">
            <g id="Group-29" transform="translate(5.000000, 4.000000)">
                <path d="M55.541,41.1621 C55.539,44.2911 50.719,46.8231 44.775,46.8191 C38.832,46.8151 34.015,44.2761 34.017,41.1471 C34.019,38.0191 38.839,35.4871 44.783,35.4911 C50.727,35.4951 55.543,38.0341 55.541,41.1621 Z" id="Stroke-1"></path>
                <path d="M55.5117,85.3437 C55.5097,88.4717 50.6897,91.0047 44.7457,91.0007 C38.8027,90.9967 33.9857,88.4577 33.9876994,85.3287" id="Stroke-3"></path>
                <path d="M33.9873,85.3291 L34.0173,41.1471" id="Stroke-5"></path>
                <path d="M55.541,41.1621 L55.512,85.3441" id="Stroke-7"></path>
                <path d="M50,65 C50,65 65.5,63 65.5,44 L65.5,8" id="Stroke-9"></path>
                <path d="M66,37 L90,12 C89,36 76.71,26.213 76.71,26.213" id="Stroke-11"></path>
                <path d="M90,12 C88.885,12 67.692,14.23 76.615,26.5" id="Stroke-13"></path>
                <path d="M65.2847,15.4531 L49.7087,0.5001 C67.6947,1.2491 60.3597,10.4601 60.3597,10.4601" id="Stroke-15"></path>
                <path d="M49.7085,0.5 C49.7085,1.336 51.3795,17.218 60.5745,10.53" id="Stroke-17"></path>
                <path d="M21.2847,51.4531 L0.4997,31.5001 C24.4997,32.5001 14.7127,44.7901 14.7127,44.7901" id="Stroke-19"></path>
                <path d="M0.5,31.5 C0.5,32.615 2.731,53.808 15,44.885" id="Stroke-21"></path>
                <path d="M22.9155,28.8691 L39.4995,11.5941 C38.6685,31.5411 28.4545,23.4061 28.4545,23.4061" id="Stroke-23"></path>
                <path d="M39.5,11.5937 C38.573,11.5937 20.959,13.4477 28.375,23.6457" id="Stroke-25"></path>
                <path d="M39,73 C39,73 22,76 22,60 L22,7" id="Stroke-27"></path>
            </g>
        </g>
    </g>
</svg>