<?xml version="1.0" encoding="UTF-8"?>
<svg width="24px" height="24px" viewBox="0 0 24 24" version="1.1" xmlns="http://www.w3.org/2000/svg" xmlns:xlink="http://www.w3.org/1999/xlink">
    <!-- Generator: sketchtool 51 (57462) - http://www.bohemiancoding.com/sketch -->
    <title>11938AE2-F615-4BE9-B574-AE66BE1180FF</title>
    <desc>Created with sketchtool.</desc>
    <defs></defs>
    <g id="Symbols" stroke="none" stroke-width="1" fill="none" fill-rule="evenodd" stroke-linecap="round" stroke-linejoin="round">
        <g id="Icons/icon_backet_big_red" stroke="#D73315">
            <g id="Group-9" transform="translate(1.000000, 1.000000)">
                <path d="M3.7316,2.8991 L17.3126,2.8991 C20.7316,2.8991 21.4026,4.8351 21.4026,5.8601 L21.4026,7.8671 C21.4026,9.1681 20.5176,10.3011 19.2556,10.6171 L6.7986,13.4781 L3.5766,3.0251" id="Stroke-1"></path>
                <path d="M11.0417,19.5417 C11.0417,20.6457 10.1457,21.5417 9.0417,21.5417 C7.9377,21.5417 7.0417,20.6457 7.0417,19.5417 C7.0417,18.4377 7.9377,17.5417 9.0417,17.5417 C10.1457,17.5417 11.0417,18.4377 11.0417,19.5417 Z" id="Stroke-3"></path>
                <path d="M22.0417,19.5417 C22.0417,20.6457 21.1457,21.5417 20.0417,21.5417 C18.9377,21.5417 18.0417,20.6457 18.0417,19.5417 C18.0417,18.4377 18.9377,17.5417 20.0417,17.5417 C21.1457,17.5417 22.0417,18.4377 22.0417,19.5417 Z" id="Stroke-5"></path>
                <polyline id="Stroke-7" points="0.5002 0.4997 2.7912 0.4997 3.5712 3.0267 7.2682 14.9977 20.4912 14.9977"></polyline>
            </g>
        </g>
    </g>
</svg>