<?xml version="1.0" encoding="UTF-8"?>
<svg width="100px" height="100px" viewBox="0 0 100 100" version="1.1" xmlns="http://www.w3.org/2000/svg" xmlns:xlink="http://www.w3.org/1999/xlink">
    <!-- Generator: sketchtool 51 (57462) - http://www.bohemiancoding.com/sketch -->
    <title>B8300F58-1984-445C-BB00-9E82FA124C22</title>
    <desc>Created with sketchtool.</desc>
    <defs></defs>
    <g id="Symbols" stroke="none" stroke-width="1" fill="none" fill-rule="evenodd" stroke-linecap="round" stroke-linejoin="round">
        <g id="Icons/icon_08" stroke="#D73315" stroke-width="3">
            <g id="Group-11" transform="translate(10.000000, 17.000000)">
                <path d="M61.3205,12.0778 C59.8915,17.1268 55.2865,20.2428 51.0355,19.0398 C46.7845,17.8368 44.4965,12.7678 45.9255,7.7208 C47.3545,2.6718 51.9595,-0.4442 56.2105,0.7588 C60.4625,1.9618 62.7495,7.0298 61.3205,12.0778 Z" id="Stroke-1"></path>
                <path d="M78.5509,33.8991 C75.9279,38.4431 70.6989,40.3361 66.8729,38.1271 C63.0469,35.9181 62.0719,30.4431 64.6949,25.8991 C67.3189,21.3551 72.5469,19.4621 76.3729,21.6711 C80.1989,23.8801 81.1749,29.3551 78.5509,33.8991 Z" id="Stroke-3"></path>
                <path d="M20.2033,12.0778 C21.6323,17.1268 26.2373,20.2428 30.4883,19.0398 C34.7403,17.8368 37.0273,12.7678 35.5983,7.7208 C34.1693,2.6718 29.5643,-0.4442 25.3133,0.7588 C21.0623,1.9618 18.7743,7.0298 20.2033,12.0778 Z" id="Stroke-5"></path>
                <path d="M1.9728,33.8991 C4.5958,38.4431 9.8248,40.3361 13.6508,38.1271 C17.4768,35.9181 18.4518,30.4431 15.8288,25.8991 C13.2058,21.3551 7.9768,19.4621 4.1508,21.6711 C0.3248,23.8801 -0.6512,29.3551 1.9728,33.8991 Z" id="Stroke-7"></path>
                <path d="M51.3205,33.9919 L62.9905,50.9659 C67.4845,57.5029 62.8045,66.3989 54.8725,66.3989 L25.6525,66.3989 C17.6565,66.3989 12.9915,57.3769 17.6125,50.8519 L29.6635,33.8409 C34.9715,26.3459 46.1185,26.4249 51.3205,33.9919 Z" id="Stroke-9"></path>
            </g>
        </g>
    </g>
</svg>