<?xml version="1.0" encoding="UTF-8"?>
<svg width="100px" height="100px" viewBox="0 0 100 100" version="1.1" xmlns="http://www.w3.org/2000/svg" xmlns:xlink="http://www.w3.org/1999/xlink">
    <!-- Generator: sketchtool 51 (57462) - http://www.bohemiancoding.com/sketch -->
    <title>2BF1C02B-043F-4B9B-BE16-324D5029BC1C</title>
    <desc>Created with sketchtool.</desc>
    <defs></defs>
    <g id="Symbols" stroke="none" stroke-width="1" fill="none" fill-rule="evenodd" stroke-linecap="round" stroke-linejoin="round">
        <g id="Icons/icon_02" stroke="#D83212" stroke-width="3">
            <g id="Group-22" transform="translate(4.000000, 15.000000)">
                <polyline id="Stroke-1" points="70.5442 62.9229 70.5442 70.5439 0.5002 70.5439 0.5002 0.4999 70.5442 0.4999 70.5442 5.0419"></polyline>
                <path d="M16.6409,7.816 L6.8159,17.641" id="Stroke-3"></path>
                <path d="M29.9822,7.816 L6.8152,30.983" id="Stroke-4"></path>
                <path d="M43.324,7.816 L6.816,44.324" id="Stroke-5"></path>
                <path d="M56.6653,7.816 L6.8153,57.665" id="Stroke-6"></path>
                <path d="M43.9583,33.8643 L14.5943,63.2283" id="Stroke-7"></path>
                <path d="M46.1174,45.046 L27.9354,63.228" id="Stroke-8"></path>
                <path d="M51.5188,52.9869 L41.2768,63.2279" id="Stroke-9"></path>
                <path d="M59.8118,58.0347 L54.6188,63.2277" id="Stroke-10"></path>
                <path d="M53.6838,24.1749 L63.3728,33.8639" id="Stroke-11"></path>
                <path d="M53.6838,43.5538 L63.3728,33.8648" id="Stroke-12"></path>
                <polyline id="Stroke-13" points="92.2151 34.0196 77.9181 34.0196 49.2381 34.0196"></polyline>
                <path d="M87.7698,43.5538 L78.0808,33.8648" id="Stroke-15"></path>
                <path d="M87.7698,24.1749 L78.0808,33.8639" id="Stroke-16"></path>
                <polyline id="Stroke-17" points="70.5715 55.3526 70.5715 41.0556 70.5715 12.3756"></polyline>
                <path d="M61.0374,50.9068 L70.7264,41.2178" id="Stroke-18"></path>
                <path d="M80.4163,50.9068 L70.7273,41.2178" id="Stroke-19"></path>
                <path d="M80.4163,16.8219 L70.7273,26.5109" id="Stroke-20"></path>
                <path d="M61.0374,16.8219 L70.7264,26.5109" id="Stroke-21"></path>
            </g>
        </g>
    </g>
</svg>