<?xml version="1.0" encoding="UTF-8"?>
<svg width="100px" height="100px" viewBox="0 0 100 100" version="1.1" xmlns="http://www.w3.org/2000/svg" xmlns:xlink="http://www.w3.org/1999/xlink">
    <!-- Generator: sketchtool 51 (57462) - http://www.bohemiancoding.com/sketch -->
    <title>44CD03A6-ADE9-46F0-A98B-0AEE955B650B</title>
    <desc>Created with sketchtool.</desc>
    <defs></defs>
    <g id="Symbols" stroke="none" stroke-width="1" fill="none" fill-rule="evenodd" stroke-linecap="round" stroke-linejoin="round">
        <g id="Icons/icon_07" stroke="#D73315" stroke-width="3">
            <g id="Group-9" transform="translate(5.000000, 32.000000)">
                <path d="M71.452,29 C71.452,32.59 68.542,35.5 64.952,35.5 C61.362,35.5 58.452,32.59 58.452,29 C58.452,25.41 61.362,22.5 64.952,22.5 C68.542,22.5 71.452,25.41 71.452,29 Z" id="Stroke-1"></path>
                <path d="M25.452,29 C25.452,32.59 22.542,35.5 18.952,35.5 C15.362,35.5 12.452,32.59 12.452,29 C12.452,25.41 15.362,22.5 18.952,22.5 C22.542,22.5 25.452,25.41 25.452,29 Z" id="Stroke-3"></path>
                <path d="M32.452,28.5 L51.452,28.5" id="Stroke-5"></path>
                <path d="M77.452,28.5 L85.912,28.5 C88.412,28.5 90.039,25.841 88.866,23.634 C86.493,19.166 80.538,13.342 65.956,11.07 C49.452,8.5 52.452,0.5 25.452,0.5 C3.818,0.5 0.873,16.31 0.502,25.629 C0.44,27.196 1.686,28.5 3.254,28.5 L6.452,28.5" id="Stroke-7"></path>
            </g>
        </g>
    </g>
</svg>