<?xml version="1.0" encoding="UTF-8"?>
<svg width="100px" height="100px" viewBox="0 0 100 100" version="1.1" xmlns="http://www.w3.org/2000/svg" xmlns:xlink="http://www.w3.org/1999/xlink">
    <!-- Generator: sketchtool 51 (57462) - http://www.bohemiancoding.com/sketch -->
    <title>614ECC0A-B882-454B-9557-0A03D32DB6EA</title>
    <desc>Created with sketchtool.</desc>
    <defs></defs>
    <g id="Symbols" stroke="none" stroke-width="1" fill="none" fill-rule="evenodd" stroke-linecap="round" stroke-linejoin="round">
        <g id="Icons/icon_09" stroke="#D73315" stroke-width="3">
            <g id="Group-19" transform="translate(8.000000, 9.000000)">
                <path d="M72.6152,46.3881 C72.6152,46.3881 85.9682,56.4901 84.0072,69.6361 C82.0462,82.7841 69.9722,83.3591 65.7672,79.9041 C62.8412,77.5001 57.4322,73.4111 59.3302,61.2891 C59.3302,61.2891 60.5252,65.1711 63.3612,65.8651 C63.3612,65.8651 73.0342,62.5661 72.6152,46.3881 Z" id="Stroke-1"></path>
                <path d="M62.0254,32.8793 C62.0254,32.8793 72.1624,43.9893 63.5424,57.8843 C63.5424,57.8843 54.4674,54.1143 62.0254,32.8793 Z" id="Stroke-3"></path>
                <path d="M31.2256,9.2094 C30.3336,11.8224 25.5846,12.5674 20.6206,10.8724 C15.6546,9.1774 12.3526,5.6854 13.2446,3.0714 C14.1366,0.4584 18.8846,-0.2856 23.8506,1.4084 C28.8156,3.1044 32.1176,6.5964 31.2256,9.2094 Z" id="Stroke-5"></path>
                <path d="M18.627,46.1186 C17.734,48.7316 12.986,49.4756 8.021,47.7816 C3.056,46.0866 -0.246,42.5946 0.646,39.9806" id="Stroke-7"></path>
                <path d="M0.6455,39.9809 L13.2445,3.0719" id="Stroke-9"></path>
                <path d="M31.2256,9.2094 L18.6266,46.1184" id="Stroke-11"></path>
                <path d="M37.4297,9.6567 C37.4297,9.6567 37.6027,9.6307 37.9207,9.5957" id="Stroke-13"></path>
                <path d="M44.3789,9.6557 C50.9539,10.3997 60.4079,13.5867 64.5039,25.2287" id="Stroke-15" stroke-dasharray="1.079,6.471"></path>
                <path d="M65.417,28.3451 C65.456,28.5061 65.493,28.6701 65.53,28.8341" id="Stroke-17"></path>
            </g>
        </g>
    </g>
</svg>