<?xml version="1.0" encoding="UTF-8"?>
<svg width="100px" height="100px" viewBox="0 0 100 100" version="1.1" xmlns="http://www.w3.org/2000/svg" xmlns:xlink="http://www.w3.org/1999/xlink">
    <!-- Generator: sketchtool 51 (57462) - http://www.bohemiancoding.com/sketch -->
    <title>65726CAC-406E-4947-B858-F2ABDC203F7E</title>
    <desc>Created with sketchtool.</desc>
    <defs></defs>
    <g id="Symbols" stroke="none" stroke-width="1" fill="none" fill-rule="evenodd">
        <g id="Icons/icon_06" fill="#D83212" fill-rule="nonzero">
            <g id="Group-27" transform="translate(5.000000, 27.000000)">
                <path d="M26.4371196,30.9390412 C27.2632043,31.0012945 27.8824121,31.7214348 27.8201588,32.5475196 C27.7579055,33.3736043 27.0377652,33.9928121 26.2116804,33.9305588 L2.8444194,32.1696143 C0.561451943,31.9987053 -1.16129011,29.9955507 -0.987419995,27.7148958 C-0.816617848,25.4317882 1.18417451,23.7101762 3.46812438,23.8810416 L26.8351244,25.6420416 C27.6612089,25.7042975 28.2804144,26.4244398 28.2181584,27.2505244 C28.1559025,28.0766089 27.4357602,28.6958144 26.6096756,28.6335584 L3.24349583,26.87262 C2.61235197,26.8254033 2.05139739,27.3080852 2.00405993,27.9408235 C1.95612768,28.5695565 2.43885494,29.1308578 3.06911958,29.1780412 L26.4371196,30.9390412 Z" id="Stroke-1"></path>
                <path d="M87.7357761,28.5263537 C87.1027177,27.992005 87.0226976,27.0456345 87.5570463,26.4125761 C88.091395,25.7795177 89.0377655,25.6994976 89.6708239,26.2338463 C90.956606,27.3191427 91.6833,28.5684889 91.6833,29.9511 C91.6833,36.0358835 76.6866156,40.0151 57.9083,40.0151 C39.1308445,40.0151 24.1343,36.0358354 24.1343,29.9511 C24.1343,24.123646 37.7771053,20.2499739 55.5302774,19.9103434 C56.3454711,19.8956553 57.1349949,19.8881 57.9083,19.8881 C58.7367271,19.8881 59.4083,20.5596729 59.4083,21.3881 C59.4083,22.2165271 58.7367271,22.8881 57.9083,22.8881 C57.1536051,22.8881 56.3820268,22.8954835 55.5859909,22.9098256 C39.7142818,23.2134632 27.1343,26.7853623 27.1343,29.9511 C27.1343,33.3261231 41.0368454,37.0151 57.9083,37.0151 C74.7805853,37.0151 88.6833,33.3261571 88.6833,29.9511 C88.6833,29.5702666 88.4043382,29.0906701 87.7357761,28.5263537 Z" id="Stroke-3"></path>
                <path d="M88.2638646,30.9455345 C88.2007819,31.0851846 88.165273,31.2324253 88.1652001,31.4809335 C88.1652945,31.2922983 88.2002089,31.1118055 88.2638646,30.9455345 Z M89.6652,29.9817 C90.4936271,29.9817 91.1652,30.6532729 91.1652,31.4817 C91.1652,31.8272973 91.0899294,32.0215156 90.9565139,32.265136 C90.9120087,32.3464037 90.8626357,32.4241498 90.8045044,32.508384 C90.7211157,32.6292168 90.6128197,32.7725451 90.4756996,32.945428 C90.2379297,33.2452115 89.9037191,33.6457194 89.4756377,34.1454719 C88.7449975,34.9984387 87.760723,36.1177994 86.5117379,37.5208895 C86.4550997,37.5845098 86.4550997,37.5845098 86.3984551,37.6481127 C85.9815028,38.116241 82.1506585,42.394222 82.1154935,42.4431683 C79.6297007,45.8955913 69.6798502,48.1017 57.9192,48.1017 C46.9239589,48.1017 37.4177371,46.1470094 34.2956891,43.1023484 C33.9221203,42.737874 31.5579505,40.168421 29.7156052,38.11147 C25.8897026,33.8399067 25.2232,33.0476587 25.2232,32.1597 C25.2232,31.3312729 25.8947729,30.6597 26.7232,30.6597 C27.3609282,30.6597 27.9057044,31.057675 28.12272,31.6188165 C28.1574424,31.6698002 28.2073356,31.7390729 28.2703091,31.8227703 C28.4656556,32.0824032 28.7608327,32.4471273 29.1428145,32.9011756 C29.8412759,33.731412 30.8075066,34.834024 31.9502948,36.10993 C33.7408257,38.109031 36.0852774,40.6570538 36.3904673,40.954814 C38.7644868,43.269988 47.6726285,45.1017 57.9192,45.1017 C68.7100849,45.1017 77.9853187,43.0451692 79.6799871,40.6915102 C79.823937,40.4911403 84.4610341,35.3128006 84.1582202,35.6527812 C84.2145847,35.5894928 84.2145847,35.5894928 84.2709331,35.5261981 C85.508246,34.1362204 86.4818267,33.0290211 87.1972421,32.1938281 C87.602844,31.7203188 87.9155566,31.3455734 88.1252469,31.0811931 C88.2038529,30.9820855 88.2653256,30.9017558 88.3067962,30.8446712 C88.5463373,30.3347567 89.0645382,29.9817 89.6652,29.9817 Z M28.2232,32.1597 C28.2232,31.8604224 28.1946574,31.7523139 28.1283089,31.6334974 C28.1896542,31.7972324 28.2232,31.9745487 28.2232,32.1597 Z" id="Stroke-5"></path>
                <path d="M60.8174398,10.0842602 C60.2316534,9.49847373 60.2316534,8.54872627 60.8174398,7.96293983 C61.4032263,7.37715339 62.3529737,7.37715339 62.9387602,7.96293983 L69.9387602,14.9629398 C70.5245466,15.5487263 70.5245466,16.4984737 69.9387602,17.0842602 C69.3529737,17.6700466 68.4032263,17.6700466 67.8174398,17.0842602 L60.8174398,10.0842602 Z" id="Stroke-7"></path>
                <path d="M62.9386844,24.0834359 C62.3528561,24.6691805 61.4031087,24.6691127 60.8173641,24.0832844 C60.2316195,23.4974561 60.2316873,22.5477087 60.8175156,21.9619641 L67.8175156,14.9629641 C68.4033439,14.3772195 69.3530913,14.3772873 69.9388359,14.9631156 C70.5245805,15.5489439 70.5245127,16.4986913 69.9386844,17.0844359 L62.9386844,24.0834359 Z" id="Stroke-9"></path>
                <path d="M89.7131,14.635 C90.5415271,14.635 91.2131,15.3065729 91.2131,16.135 C91.2131,16.9634271 90.5415271,17.635 89.7131,17.635 L58.6671,17.635 C57.8386729,17.635 57.1671,16.9634271 57.1671,16.135 C57.1671,15.3065729 57.8386729,14.635 58.6671,14.635 L89.7131,14.635 Z" id="Stroke-11"></path>
                <path d="M87.5626844,21.9619641 C88.1485127,22.5477087 88.1485805,23.4974561 87.5628359,24.0832844 C86.9770913,24.6691127 86.0273439,24.6691805 85.4415156,24.0834359 L78.4415156,17.0844359 C77.8556873,16.4986913 77.8556195,15.5489439 78.4413641,14.9631156 C79.0271087,14.3772873 79.9768561,14.3772195 80.5626844,14.9629641 L87.5626844,21.9619641 Z" id="Stroke-13"></path>
                <path d="M85.4414398,7.96293983 C86.0272263,7.37715339 86.9769737,7.37715339 87.5627602,7.96293983 C88.1485466,8.54872627 88.1485466,9.49847373 87.5627602,10.0842602 L80.5627602,17.0842602 C79.9769737,17.6700466 79.0272263,17.6700466 78.4414398,17.0842602 C77.8556534,16.4984737 77.8556534,15.5487263 78.4414398,14.9629398 L85.4414398,7.96293983 Z" id="Stroke-15"></path>
                <path d="M75.5783,31.5471 C75.5783,32.3755271 74.9067271,33.0471 74.0783,33.0471 C73.2498729,33.0471 72.5783,32.3755271 72.5783,31.5471 L72.5783,0.5001 C72.5783,-0.328327125 73.2498729,-0.9999 74.0783,-0.9999 C74.9067271,-0.9999 75.5783,-0.328327125 75.5783,0.5001 L75.5783,31.5471 Z" id="Stroke-17"></path>
                <path d="M68.2512602,29.3958602 C67.6654737,29.9816466 66.7157263,29.9816466 66.1299398,29.3958602 C65.5441534,28.8100737 65.5441534,27.8603263 66.1299398,27.2745398 L73.1299398,20.2745398 C73.7157263,19.6887534 74.6654737,19.6887534 75.2512602,20.2745398 C75.8370466,20.8603263 75.8370466,21.8100737 75.2512602,22.3958602 L68.2512602,29.3958602 Z" id="Stroke-19"></path>
                <path d="M82.2503359,27.2746156 C82.8360805,27.8604439 82.8360127,28.8101913 82.2501844,29.3959359 C81.6643561,29.9816805 80.7146087,29.9816127 80.1288641,29.3957844 L73.1298641,22.3957844 C72.5441195,21.8099561 72.5441873,20.8602087 73.1300156,20.2744641 C73.7158439,19.6887195 74.6655913,19.6887873 75.2513359,20.2746156 L82.2503359,27.2746156 Z" id="Stroke-21"></path>
                <path d="M80.1289398,2.65143983 C80.7147263,2.06565339 81.6644737,2.06565339 82.2502602,2.65143983 C82.8360466,3.23722627 82.8360466,4.18697373 82.2502602,4.77276017 L75.2512602,11.7717602 C74.6654737,12.3575466 73.7157263,12.3575466 73.1299398,11.7717602 C72.5441534,11.1859737 72.5441534,10.2362263 73.1299398,9.65043983 L80.1289398,2.65143983 Z" id="Stroke-23"></path>
                <path d="M66.1300156,4.77283594 C65.5441873,4.18709134 65.5441195,3.23734388 66.1298641,2.6515156 C66.7156087,2.06568732 67.6653561,2.06561947 68.2511844,2.65136406 L75.2511844,9.65036406 C75.8370127,10.2361087 75.8370805,11.1858561 75.2513359,11.7716844 C74.6655913,12.3575127 73.7158439,12.3575805 73.1300156,11.7718359 L66.1300156,4.77283594 Z" id="Stroke-25"></path>
            </g>
        </g>
    </g>
</svg>