<?xml version="1.0" encoding="UTF-8"?>
<svg width="66px" height="66px" viewBox="0 0 66 66" version="1.1" xmlns="http://www.w3.org/2000/svg" xmlns:xlink="http://www.w3.org/1999/xlink">
    <!-- Generator: sketchtool 51 (57462) - http://www.bohemiancoding.com/sketch -->
    <title>9DCBBFD3-EC0E-4C09-B573-AA7FD05F8964</title>
    <desc>Created with sketchtool.</desc>
    <defs></defs>
    <g id="Symbols" stroke="none" stroke-width="1" fill="none" fill-rule="evenodd">
        <g id="item/hover" transform="translate(-40.000000, -40.000000)">
            <g id="Skidks" transform="translate(40.000000, 40.000000)">
                <circle id="Oval" fill="#D83212" cx="32.9707031" cy="32.9707031" r="32.9707031"></circle>
                <path d="M17.3500977,22.2890625 C17.3500977,20.1894426 18.0296156,18.4397856 19.3886719,17.0400391 C20.7477281,15.6402925 22.6397991,14.9404297 25.0649414,14.9404297 C27.522636,14.9404297 29.4269138,15.6362235 30.777832,17.027832 C32.1287502,18.4194406 32.8041992,20.1731665 32.8041992,22.2890625 L32.8041992,24.1689453 C32.8041992,26.2685652 32.1287502,28.0100842 30.777832,29.3935547 C29.4269138,30.7770251 27.5389119,31.46875 25.1137695,31.46875 C22.6723511,31.46875 20.7680732,30.7770251 19.4008789,29.3935547 C18.0336846,28.0100842 17.3500977,26.2685652 17.3500977,24.1689453 L17.3500977,22.2890625 Z M22.0864258,24.1689453 C22.0864258,25.1129604 22.3468398,25.9064095 22.8676758,26.5493164 C23.3885117,27.1922233 24.1372021,27.5136719 25.1137695,27.5136719 C26.0577847,27.5136719 26.7861302,27.1922233 27.2988281,26.5493164 C27.811526,25.9064095 28.0678711,25.1129604 28.0678711,24.1689453 L28.0678711,22.2890625 C28.0678711,21.3450474 27.807457,20.5434603 27.2866211,19.8842773 C26.7657852,19.2250944 26.0252327,18.8955078 25.0649414,18.8955078 C24.1046501,18.8955078 23.3681666,19.2250944 22.8554688,19.8842773 C22.3427709,20.5434603 22.0864258,21.3450474 22.0864258,22.2890625 L22.0864258,24.1689453 Z M34.3422852,42.2841797 C34.3422852,40.2008359 35.0258721,38.4593169 36.3930664,37.0595703 C37.7602607,35.6598237 39.6564006,34.9599609 42.081543,34.9599609 C44.5229614,34.9599609 46.4231703,35.6557548 47.7822266,37.0473633 C49.1412828,38.4389718 49.8208008,40.1845598 49.8208008,42.2841797 L49.8208008,44.1640625 C49.8208008,46.2799585 49.1453518,48.0296155 47.7944336,49.4130859 C46.4435154,50.7965564 44.5555134,51.4882812 42.1303711,51.4882812 C39.6889526,51.4882812 37.7806058,50.7924874 36.4052734,49.4008789 C35.029941,48.0092704 34.3422852,46.2636824 34.3422852,44.1640625 L34.3422852,42.2841797 Z M39.0786133,44.1640625 C39.0786133,45.0918015 39.3593722,45.8852506 39.9208984,46.5444336 C40.4824247,47.2036166 41.2189082,47.5332031 42.1303711,47.5332031 C43.1883191,47.5332031 43.9451475,47.2280304 44.4008789,46.6176758 C44.8566104,46.0073212 45.0844727,45.1894583 45.0844727,44.1640625 L45.0844727,42.2841797 C45.0844727,41.3564407 44.8240586,40.5629916 44.3032227,39.9038086 C43.7823867,39.2446256 43.0418342,38.9150391 42.081543,38.9150391 C41.1049756,38.9150391 40.3603541,39.2446256 39.8476562,39.9038086 C39.3349584,40.5629916 39.0786133,41.3564407 39.0786133,42.2841797 L39.0786133,44.1640625 Z M26.2856445,48.3388672 L22.8188477,46.5078125 L40.1772461,18.7246094 L43.644043,20.5556641 L26.2856445,48.3388672 Z" id="%" fill="#FFFFFF"></path>
            </g>
        </g>
    </g>
</svg>