<?xml version="1.0" encoding="UTF-8"?>
<svg width="139px" height="33px" viewBox="0 0 139 33" version="1.1" xmlns="http://www.w3.org/2000/svg" xmlns:xlink="http://www.w3.org/1999/xlink">
    <!-- Generator: sketchtool 51 (57462) - http://www.bohemiancoding.com/sketch -->
    <title>14FC3242-D14C-42E2-94D2-EF60BEC1ECDA</title>
    <desc>Created with sketchtool.</desc>
    <defs></defs>
    <g id="Symbols" stroke="none" stroke-width="1" fill="none" fill-rule="evenodd">
        <g id="logo/WhiteBig" fill="#FEFEFE">
            <path d="M9.2529,20.2696 C8.9499,19.5946 8.9729,18.8116 9.3289,18.1636 C10.2949,16.3966 10.3879,14.9836 10.2759,14.0696 C10.2539,13.8906 10.4949,13.8156 10.5769,13.9756 C11.1819,15.1456 11.9749,17.1066 11.7279,18.9866 C11.6109,19.8756 11.1859,20.9716 10.9089,21.6156 C10.7889,21.8966 10.4179,21.9656 10.2089,21.7426 C9.7739,21.2766 9.4649,20.7426 9.2529,20.2696 Z M10.0449,10.5338 C9.7469,10.9408 9.4009,11.5088 9.1249,12.2328 C6.6789,18.6328 8.6799,21.4828 10.4399,22.5618 C11.9029,23.4598 13.3009,22.5178 13.7229,21.8228 C14.2189,21.0058 14.1599,19.4568 13.7669,18.5388 C13.5089,17.8678 13.1099,17.3978 12.7519,17.0848 C12.6209,16.9698 12.7409,16.7568 12.9049,16.8168 C13.1859,16.9188 13.5219,17.0588 13.8999,17.2528 C15.1279,17.8808 16.0289,18.7808 16.3389,20.3088 C16.9979,23.5598 20.2329,21.2628 19.6529,17.7058 C19.1039,14.3318 17.3479,13.4428 15.7279,13.4058 C15.5029,13.4008 15.4559,13.0848 15.6709,13.0218 C17.3969,12.5128 20.2799,12.5578 22.2599,15.2948 C22.2859,15.3298 22.3109,15.3658 22.3359,15.4008 C23.1089,16.4908 23.2459,17.9178 22.6819,19.1288 C20.8649,23.0338 17.8549,26.3488 13.9729,28.5278 C10.4529,26.5228 7.6609,23.5788 5.8359,20.1138 C5.3679,19.2238 5.2879,18.1788 5.5989,17.2228 C6.8899,13.2608 8.7779,11.2458 9.8609,10.3608 C9.9779,10.2648 10.1339,10.4118 10.0449,10.5338 Z M78.7309,10.2642 L81.8079,10.2642 L81.8079,16.2272 L87.8739,16.2272 L87.8739,10.2642 L90.9509,10.2642 L90.9509,25.5462 L87.8739,25.5462 L87.8739,19.1272 L81.8079,19.1272 L81.8079,25.5462 L78.7309,25.5462 L78.7309,10.2642 Z M94.9252,10.2642 L98.0022,10.2642 L98.0022,20.6292 L104.6422,10.2642 L107.7192,10.2642 L107.7192,25.5462 L104.6422,25.5462 L104.6422,15.0192 L98.0022,25.5462 L94.9252,25.5462 L94.9252,10.2642 Z M111.6938,10.2642 L114.7708,10.2642 L114.7708,16.2562 L116.2138,16.2562 C116.7628,16.2562 117.2218,16.1362 117.5898,15.8952 C117.9588,15.6552 118.2248,15.3242 118.3918,14.9022 L119.1138,12.8552 C119.4378,11.9332 119.8798,11.2702 120.4388,10.8682 C120.9988,10.4662 121.7838,10.2642 122.7948,10.2642 L123.8098,10.2642 L123.8098,13.0322 L123.3688,13.0322 C123.0638,13.0322 122.8108,13.0472 122.6108,13.0762 C122.4088,13.1062 122.2428,13.1672 122.1098,13.2602 C121.9768,13.3532 121.8668,13.4842 121.7788,13.6502 C121.6898,13.8172 121.5968,14.0432 121.4988,14.3272 L120.9838,15.8442 C120.8268,16.3062 120.6008,16.6662 120.3058,16.9262 C120.0118,17.1862 119.6928,17.3752 119.3488,17.4932 C119.8798,17.6602 120.3038,17.9082 120.6228,18.2362 C120.9418,18.5652 121.2148,19.0092 121.4398,19.5692 L122.1618,21.4382 C122.2588,21.7032 122.3528,21.9172 122.4408,22.0782 C122.5298,22.2412 122.6348,22.3662 122.7568,22.4542 C122.8808,22.5422 123.0278,22.6062 123.1998,22.6452 C123.3708,22.6852 123.5988,22.7042 123.8838,22.7042 L124.5758,22.7042 L124.5758,25.5462 L123.4568,25.5462 C122.3478,25.5462 121.5018,25.3402 120.9178,24.9282 C120.3338,24.5152 119.8548,23.8082 119.4818,22.8072 L118.6288,20.6292 C118.4908,20.2652 118.3208,19.9882 118.1208,19.7972 C117.9188,19.6052 117.7028,19.4612 117.4718,19.3632 C117.2418,19.2642 117.0058,19.2052 116.7658,19.1862 C116.5248,19.1662 116.2828,19.1572 116.0368,19.1572 L114.7708,19.1572 L114.7708,25.5462 L111.6938,25.5462 L111.6938,10.2642 Z M132.7622,25.7227 C130.9362,25.7227 129.3512,25.1097 128.0062,23.8827 C126.5742,22.6557 125.8472,20.6677 125.8272,17.9197 C125.8662,15.1227 126.5932,13.1107 128.0062,11.8837 C129.3702,10.6377 130.9552,10.0337 132.7622,10.0737 C133.9492,10.1127 134.9942,10.3577 135.8982,10.8087 C136.8292,11.2897 137.6152,11.9327 138.2532,12.7377 L135.9862,14.7547 C135.2102,13.7047 134.1802,13.1697 132.8942,13.1497 C130.2542,13.1107 128.9242,14.7007 128.9052,17.9197 C128.9242,21.1097 130.2542,22.6847 132.8942,22.6457 C134.1992,22.6067 135.2302,22.0767 135.9862,21.0557 L138.2532,23.0727 C137.5662,23.8387 136.7812,24.4617 135.8982,24.9427 C134.9752,25.4627 133.9302,25.7227 132.7622,25.7227 Z M72.4301,16.5362 C72.3911,15.3682 72.0721,14.4702 71.4731,13.8422 C70.8841,13.2632 70.1281,12.9732 69.2061,12.9732 C68.2841,12.9732 67.5281,13.2632 66.9391,13.8422 C66.3601,14.4702 66.0401,15.3682 65.9821,16.5362 L72.4301,16.5362 Z M69.6921,25.7232 C68.8671,25.7232 68.0821,25.6052 67.3361,25.3692 C66.9931,25.2612 66.6191,25.0892 66.2171,24.8542 C65.8541,24.6972 65.4961,24.4662 65.1431,24.1622 C64.4751,23.5542 63.9511,22.7592 63.5681,21.7772 C63.1251,20.8152 62.9051,19.5392 62.9051,17.9492 C62.9051,16.3982 63.0961,15.1422 63.4791,14.1812 C63.8811,13.1112 64.3721,12.3062 64.9511,11.7662 C65.5401,11.1872 66.2221,10.7552 66.9971,10.4712 C67.7241,10.2052 68.4601,10.0732 69.2061,10.0732 C70.9521,10.1122 72.4301,10.6862 73.6371,11.7952 C74.8441,12.9242 75.4681,14.5042 75.5071,16.5362 L75.5071,19.0682 L65.9821,19.0682 C65.9821,20.2952 66.3351,21.2272 67.0421,21.8652 C67.7191,22.5132 68.5821,22.8372 69.6331,22.8372 C70.8791,22.8372 71.9931,22.3412 72.9751,21.3502 L75.2121,23.2492 C73.6221,24.9182 71.7831,25.7422 69.6921,25.7232 Z M52.0405,19.9664 C53.0905,19.9274 53.9565,19.8014 54.6395,19.5914 C55.3205,19.3804 55.8625,19.0584 56.2665,18.6264 C56.6685,18.1954 56.9505,17.6374 57.1115,16.9554 C57.2735,16.2734 57.3545,15.4174 57.3545,14.3864 C57.3545,13.3654 57.2785,12.5024 57.1265,11.7954 C56.9755,11.0894 56.7025,10.5244 56.3105,10.1024 C55.9175,9.6804 55.3745,9.3764 54.6835,9.1894 C53.9905,9.0034 53.1095,8.8854 52.0405,8.8364 L52.0405,19.9664 Z M48.7865,8.8364 C47.7275,8.8854 46.8485,9.0034 46.1515,9.1894 C45.4545,9.3764 44.9125,9.6804 44.5245,10.1024 C44.1375,10.5244 43.8665,11.0894 43.7155,11.7954 C43.5625,12.5024 43.4865,13.3654 43.4865,14.3864 C43.4865,15.4174 43.5675,16.2734 43.7295,16.9554 C43.8925,17.6374 44.1735,18.1954 44.5765,18.6264 C44.9785,19.0584 45.5205,19.3804 46.2025,19.5914 C46.8855,19.8014 47.7465,19.9274 48.7865,19.9664 L48.7865,8.8364 Z M48.7865,23.0134 C47.2265,22.9544 45.8955,22.7434 44.7975,22.3814 C43.6975,22.0174 42.8115,21.4854 42.1405,20.7834 C41.4675,20.0814 40.9815,19.1934 40.6825,18.1184 C40.3835,17.0444 40.2325,15.7604 40.2325,14.2694 C40.2325,12.7774 40.3935,11.5214 40.7115,10.5004 C41.0305,9.4794 41.5385,8.6354 42.2355,7.9674 C42.9325,7.3004 43.8225,6.8074 44.9075,6.4884 C45.9915,6.1694 47.2855,5.9704 48.7865,5.8924 L48.7865,3.9044 L52.0405,3.9044 L52.0405,5.8924 C53.5515,5.9704 54.8505,6.1694 55.9345,6.4884 C57.0195,6.8074 57.9095,7.3004 58.6065,7.9674 C59.3035,8.6354 59.8115,9.4794 60.1305,10.5004 C60.4485,11.5214 60.6085,12.7774 60.6085,14.2694 C60.6085,15.7604 60.4585,17.0444 60.1595,18.1184 C59.8595,19.1934 59.3715,20.0814 58.6945,20.7834 C58.0175,21.4854 57.1315,22.0174 56.0375,22.3814 C54.9425,22.7434 53.6105,22.9544 52.0405,23.0134 L52.0405,25.7224 L48.7865,25.7224 L48.7865,23.0134 Z M28.061,0.0001 L25.222,0.0001 L2.91,0.0001 L0.097,0.0001 L0.07,2.8131 L0.001,10.1651 C-0.083,19.1301 4.746,27.3801 12.603,31.6971 L13.97,32.4481 L15.337,31.6971 L15.457,31.6311 C23.231,27.3601 28.061,19.1981 28.061,10.3281 L28.061,2.8391 L28.061,0.0001 Z M25.222,2.8391 L25.222,10.3281 C25.222,18.1611 20.956,25.3711 14.09,29.1421 L13.971,29.2081 C7.042,25.4021 2.766,18.0961 2.84,10.1921 L2.91,2.8391 L25.222,2.8391 Z" id="Logo"></path>
        </g>
    </g>
</svg>